<svg xmlns="http://www.w3.org/2000/svg" id="vector" viewBox="0.45 0.29 399.26 396.93">
    <path id="path" d="M 178.605 1.538 C 156.323 4.935 149.248 6.511 136.744 10.86 C 119.116 16.993 98.953 27.34 85.18 37.323 C 81.052 40.315 75.791 44.105 73.488 45.745 C 66.747 50.549 48.457 69.498 41.322 79.072 C -20.506 162.03 -10.407 273.591 65.393 344.972 C 67.848 347.284 70.631 349.622 71.577 350.169 C 72.523 350.716 76.897 353.884 81.296 357.209 C 188.201 438.023 346.092 389.234 389.286 262.039 C 404.647 216.801 401.958 157.98 382.75 119.115 C 380.982 115.537 379.535 112.451 379.535 112.257 C 379.535 110.721 367.843 90.966 362.485 83.447 C 350.728 66.951 339.04 54.833 324.166 43.721 C 321.77 41.93 319.242 39.93 318.549 39.276 C 306.133 27.555 265.666 9.51 240.718 4.57 C 224.696 1.397 190.482 -0.273 178.605 1.538 M 228.372 6.491 C 252.268 10.378 266.527 14.796 286.047 24.358 C 296.942 29.695 297.724 30.181 323.721 47.779 C 349.364 65.138 381.925 115.712 389.836 150.471 C 403.97 212.566 391.082 271.653 352.758 320.465 C 347.275 327.449 325.104 349.767 323.65 349.767 C 323.167 349.767 319.742 351.976 316.038 354.675 C 304.932 362.766 301.932 364.655 290.233 370.921 C 284.318 374.089 269.737 380.347 261.395 383.297 C 224.594 396.312 173.138 395.741 135.814 381.903 C 133.512 381.05 130.367 379.966 128.826 379.496 C 127.286 379.025 120.377 375.796 113.474 372.32 C 83.241 357.097 61.727 339.158 41.715 312.483 C 38.847 308.661 29.961 294.06 27.606 289.302 C 26.72 287.512 25.61 285.419 25.14 284.651 C 3.007 248.549 -0.951 180.946 16.256 132.948 C 21.153 119.29 38.005 87.975 42.748 83.721 C 43.033 83.465 44.511 81.581 46.032 79.535 C 51.024 72.82 53.253 70.364 64.817 58.837 C 71.105 52.57 76.686 47.442 77.22 47.442 C 77.753 47.442 81.423 45.018 85.374 42.057 C 109.88 23.687 137.907 12.251 173.488 6.104 C 185.264 4.069 214.765 4.278 228.372 6.491 M 172.093 12.084 C 161.215 13.907 143.36 18.217 139.07 20.056 C 137.535 20.713 132.743 22.62 128.421 24.293 C 119.557 27.723 108.987 33.058 101.395 37.932 C 80.653 51.251 77.246 53.882 65.767 65.441 C -29.626 161.505 3.937 324.181 129.302 373.395 C 145.93 379.922 152.397 381.724 169.753 384.664 C 216.823 392.638 265.368 382.03 306.414 354.801 C 309.43 352.8 313.198 350.385 314.786 349.435 C 344.398 331.718 377.446 279.823 385.956 237.674 C 397.18 182.084 381.722 117.222 348.448 80.297 C 336.333 66.853 331.532 61.856 326.512 57.464 C 316.903 49.058 314.926 47.444 314.232 47.443 C 313.874 47.442 309.479 44.705 304.465 41.36 C 266.642 16.125 215.487 4.812 172.093 12.084 M 210.233 45.587 C 231.859 47.784 236.711 48.445 241.638 49.865 C 248.383 51.81 265.62 58.414 269.302 60.465 C 270.837 61.32 274.089 63.131 276.529 64.489 C 375.866 119.801 381.516 263.018 286.855 326.215 C 268.529 338.45 241.447 349.767 230.495 349.767 L 227.2 349.767 L 226.582 339.302 C 224.622 306.096 224.265 272.124 225.865 271.178 C 232.768 267.096 251.052 261.395 257.239 261.395 C 262.549 261.395 276.063 254.85 281.897 249.452 L 287.588 244.186 L 286.671 240.465 C 285.21 234.544 277.359 208.436 276.735 207.427 C 276.039 206.301 276.967 206.299 294.9 207.381 C 302.821 207.859 316.314 208.507 324.884 208.819 L 340.465 209.388 L 340.465 183.299 L 340.465 157.209 L 331.395 157.213 C 326.407 157.214 315.628 157.62 307.442 158.113 C 289.825 159.176 278.212 159.751 258.414 160.54 L 243.805 161.122 L 243.187 158.468 C 241.936 153.088 236.135 144.235 229.777 138.001 L 223.241 131.594 L 224.163 114.867 C 225.906 83.258 226.995 60.924 226.986 56.977 L 226.977 53.023 L 200.874 53.023 L 174.772 53.023 L 175.352 66.744 C 175.671 74.291 176.324 86.946 176.803 94.868 C 177.282 102.789 177.674 111.211 177.674 113.583 L 177.674 117.895 L 172.579 116.711 C 162.32 114.326 153.488 105.467 153.488 97.561 C 153.488 96.6 153.02 95.814 152.448 95.814 C 151.716 95.814 151.518 99.338 151.778 107.701 C 152.27 123.491 154.234 126.331 167.442 130.353 C 175.519 132.813 177.065 143.256 169.352 143.256 C 167.09 143.256 159.206 138.445 157.209 135.846 C 156.033 134.315 151.969 132.093 150.347 132.093 C 148.643 132.093 148.632 132.185 150.138 133.849 C 153.347 137.395 155.349 144.77 155.349 153.045 L 155.349 160.954 L 140.698 160.417 C 132.64 160.121 115.64 159.279 102.921 158.544 C 90.202 157.81 75.655 157.209 70.595 157.209 L 61.395 157.209 L 61.395 183.342 L 61.395 209.476 L 74.651 208.911 C 81.942 208.601 97.437 207.871 109.085 207.289 C 120.733 206.708 130.536 206.504 130.868 206.837 C 131.201 207.17 128.827 215.414 125.592 225.158 C 122.117 235.623 120.055 243.204 120.553 243.681 C 121.016 244.125 126 247.184 131.628 250.479 C 137.256 253.774 147.721 260.036 154.884 264.395 C 162.047 268.754 170 273.315 172.558 274.532 L 177.209 276.744 L 177.183 283.721 C 177.132 297.22 175.734 341.908 175.236 345.935 L 174.733 350.01 L 168.995 349.507 C 143.18 347.246 102.228 322.854 81.972 297.674 C 80.12 295.372 78.37 293.279 78.083 293.023 C 76.993 292.05 68.837 280.199 68.837 279.587 C 68.837 279.234 67.796 277.58 66.522 275.911 C 58.729 265.694 49.897 239.656 46.925 218.14 C 39.732 166.058 63.404 108.455 104.651 77.671 C 106.698 76.144 108.581 74.649 108.837 74.349 C 109.093 74.048 112.233 71.926 115.814 69.633 C 135.56 56.989 155.49 49.318 173.728 47.34 C 200.039 44.488 199.619 44.508 210.233 45.587 M 222.011 70 C 221.68 76.779 220.949 92.581 220.386 105.116 C 219.824 117.651 219.185 128.089 218.967 128.312 C 218.168 129.127 211.163 121.428 211.163 119.734 C 211.163 117.471 209.429 118.082 207.137 121.151 L 205.323 123.581 L 207.784 127.78 C 214.571 139.363 203.798 141.164 194.383 130.02 C 191.588 126.713 187.791 123.127 185.944 122.051 L 182.586 120.094 L 181.966 110.512 C 180.743 91.618 179.562 59.314 180.063 58.502 C 180.345 58.047 190.033 57.674 201.594 57.674 L 222.613 57.674 L 222.011 70 M 118.14 164.621 C 130.674 165.125 144.381 165.806 148.598 166.134 L 156.266 166.731 L 157.184 170.138 C 157.689 172.012 158.725 174.37 159.486 175.378 C 160.248 176.385 160.878 177.628 160.886 178.14 C 160.897 178.76 160.664 178.76 160.19 178.14 C 159.798 177.628 157.12 174.957 154.238 172.205 L 148.999 167.2 L 146.19 169.2 C 143.769 170.924 142.7 173.298 138.446 186.396 L 133.511 201.592 L 117.686 202.19 C 108.982 202.519 93.802 203.063 83.953 203.399 L 66.047 204.011 L 66.047 183.255 L 66.047 162.499 L 80.698 163.102 C 88.756 163.433 105.605 164.117 118.14 164.621 M 335.814 183.401 L 335.814 204.011 L 315.116 203.306 C 303.733 202.918 290.063 202.329 284.74 201.998 L 275.061 201.395 L 271.839 190.698 C 270.067 184.814 268.41 178.849 268.156 177.442 C 267.637 174.558 266.808 174.241 265.116 176.279 C 263.252 178.526 262.577 177.949 261.418 173.119 L 260.326 168.564 L 254.466 174.338 C 251.003 177.75 245.807 181.582 241.764 183.707 L 234.921 187.303 L 236.716 184.582 C 239.528 180.32 241.664 175.558 242.816 170.981 L 243.876 166.774 L 251.473 166.204 C 255.651 165.89 271.419 165.185 286.512 164.636 C 301.605 164.088 314.581 163.497 315.349 163.323 C 316.116 163.149 321.035 162.958 326.279 162.899 L 335.814 162.791 L 335.814 183.401 M 161.832 181.382 C 167.188 186.25 172.465 191.07 173.559 192.093 C 174.653 193.116 177.611 195.837 180.133 198.14 C 182.655 200.442 188.785 206.058 193.754 210.619 L 202.791 218.913 L 202.791 249.922 C 202.791 281.04 202.4 284.636 199.523 279.981 C 199.2 279.459 195.774 277.531 191.908 275.696 C 188.043 273.862 182.526 270.997 179.649 269.33 C 176.772 267.663 172.326 265.145 169.767 263.736 C 164.199 260.668 146.621 250.629 136.279 244.611 C 127.426 239.46 127.618 240.66 132.87 223.256 C 134.955 216.349 138.108 205.884 139.879 200 C 141.649 194.116 143.529 188.047 144.056 186.512 C 144.584 184.977 145.902 180.657 146.985 176.912 C 149.28 168.977 147.639 168.483 161.832 181.382 M 267.914 201.395 C 272.024 215.721 276.216 230.067 277.228 233.275 C 278.241 236.484 279.07 239.902 279.07 240.872 C 279.07 245.092 265.398 252.505 252.558 255.246 C 231.856 259.666 223.055 263.468 210.93 273.228 L 203.721 279.031 L 203.721 248.536 L 203.721 218.04 L 206.02 213.426 C 210.769 203.896 220.141 195.796 234.128 189.134 C 244.431 184.228 252.171 179.263 256.267 174.933 C 259.691 171.314 258.519 168.651 267.914 201.395 M 220.455 287.729 C 220.45 294.478 220.928 311.208 221.518 324.906 C 222.109 338.604 222.348 350.055 222.051 350.352 C 219.823 352.58 182.219 352.83 180.103 350.63 C 179.509 350.013 181.411 287.419 182.142 283.509 L 182.791 280.041 L 190.466 284.672 C 200.701 290.847 204.123 290.975 208.503 285.349 C 212.565 280.131 218.76 274.405 219.709 274.991 C 220.125 275.248 220.461 280.98 220.455 287.729" fill="#d8ae1a" stroke="#00000000" fill-rule="evenodd"/>
</svg>